<svg width="34" height="37" viewBox="0 0 34 37" fill="none" xmlns="http://www.w3.org/2000/svg">
<path d="M16.1271 0.488325C7.23519 0.757572 0.218289 8.18563 0.48656 17.0453L0.995236 33.8443C1.03182 35.0524 2.04827 36.0056 3.26073 35.9689L4.72683 35.9245C5.93929 35.8878 6.89621 34.8748 6.85963 33.6668C6.84742 33.2636 7.16738 32.9264 7.57056 32.9142L9.03666 32.8698C9.43984 32.8576 9.77962 33.1748 9.79182 33.578C9.82841 34.786 10.8449 35.7393 12.0573 35.7026L13.5234 35.6582C14.7359 35.6215 15.6928 34.6085 15.6562 33.4004C15.644 32.9972 15.964 32.66 16.3671 32.6478L17.8332 32.6034C18.2364 32.5912 18.5762 32.9084 18.5884 33.3116C18.625 34.5197 19.6414 35.4729 20.8539 35.4362L22.32 35.3918C23.5325 35.3551 24.4894 34.3421 24.4528 33.134C24.4406 32.7309 24.7606 32.3937 25.1637 32.3815L26.6298 32.3371C27.033 32.3248 27.3728 32.6421 27.385 33.0453C27.4216 34.2533 28.438 35.2066 29.6505 35.1698L31.1166 35.1254C32.3291 35.0887 33.286 34.0758 33.2494 32.8677L32.7407 16.0686C32.4724 7.20897 25.019 0.219078 16.1271 0.488325ZM13.6151 14.4546C13.6273 14.8578 13.3088 15.1949 12.9042 15.2072C11.6917 15.2439 10.7348 16.2569 10.7714 17.4649C10.8043 18.5518 11.6548 19.4545 12.7471 19.5661C12.9899 19.5909 13.2026 19.7336 13.3191 19.9465C13.4356 20.1594 13.4361 20.4167 13.3223 20.6322C12.7063 21.8059 11.5068 22.5601 10.1931 22.5999C8.17138 22.6611 6.47825 21.0719 6.4173 19.0589L6.24037 13.2158C6.17942 11.2028 7.77328 9.51403 9.79503 9.45281C11.8168 9.39159 13.5099 10.9808 13.5709 12.9938L13.6151 14.4546ZM26.81 14.055C26.8222 14.4582 26.5037 14.7954 26.099 14.8076C24.8866 14.8443 23.9297 15.8573 23.9662 17.0654C23.9992 18.1522 24.8497 19.0549 25.9419 19.1666C26.1848 19.1914 26.399 19.3341 26.514 19.547C26.6291 19.7599 26.631 20.0172 26.5172 20.2326C25.9012 21.4063 24.7016 22.1606 23.388 22.2003C21.3663 22.2616 19.6731 20.6723 19.6122 18.6594L19.4353 12.8162C19.3743 10.8033 20.9682 9.11449 22.9899 9.05327C25.0117 8.99205 26.7048 10.5813 26.7657 12.5943L26.81 14.055Z" fill="#6441A5"/>
</svg>
