<svg width="33" height="36" viewBox="0 0 33 36" fill="none" xmlns="http://www.w3.org/2000/svg">
<path d="M19.2545 17.9977L32.2334 6.34718C32.3893 6.2077 32.4792 6.01572 32.4856 5.81325C32.492 5.61077 32.4129 5.4158 32.2678 5.27182C28.8054 1.87176 24.1596 0 19.1873 0C14.215 0 9.50892 1.87176 5.9387 5.27182C-1.43331 12.2894 -1.61705 23.7074 5.5291 30.725C8.98992 34.1236 13.6358 35.9953 18.6081 35.9953C23.5804 35.9953 28.2864 34.1236 31.8567 30.7235C32.0079 30.5795 32.0917 30.3846 32.0919 30.1821C32.092 29.9796 32.0067 29.7861 31.8569 29.6482L19.2545 17.9977ZM19.0666 7.49903C19.0799 6.67264 19.7858 5.99922 20.6422 5.99922C21.4986 5.99922 22.1828 6.67264 22.1695 7.49903C22.1562 8.32542 21.4503 8.99883 20.5939 8.99883C19.7375 8.99883 19.0533 8.32692 19.0666 7.49903Z" fill="#68CE58"/>
</svg>
