<svg width="134" height="33" viewBox="0 0 134 33" fill="none" xmlns="http://www.w3.org/2000/svg">
<path d="M62.5947 1.01879C54.6637 1.02914 48.2187 7.46752 48.229 15.3698L48.2486 30.3535C48.25 31.431 49.1312 32.3067 50.2127 32.3053L51.5203 32.3036C52.6018 32.3022 53.4807 31.4242 53.4793 30.3466C53.4788 29.987 53.7726 29.6948 54.1323 29.6943L55.4399 29.6926C55.7995 29.6922 56.0941 29.9836 56.0946 30.3432C56.096 31.4208 56.9772 32.2965 58.0587 32.2951L59.3663 32.2934C60.4478 32.2919 61.3267 31.4139 61.3253 30.3364C61.3248 29.9768 61.6186 29.6846 61.9783 29.6841L63.2859 29.6824C63.6455 29.6819 63.9401 29.9734 63.9406 30.333C63.942 31.4105 64.8232 32.2862 65.9047 32.2848L67.2123 32.2831C68.2938 32.2817 69.1727 31.4037 69.1713 30.3262C69.1708 29.9666 69.4647 29.6743 69.8243 29.6738L71.1319 29.6721C71.4915 29.6717 71.7861 29.9631 71.7866 30.3227C71.788 31.4003 72.6692 32.276 73.7507 32.2746L75.0583 32.2729C76.1398 32.2715 77.0187 31.3934 77.0173 30.3159L76.9977 15.3322C76.9874 7.42996 70.5257 1.00843 62.5947 1.01879ZM59.9955 13.4C59.996 13.7596 59.7034 14.0519 59.3425 14.0523C58.2611 14.0538 57.3822 14.9318 57.3836 16.0093C57.3848 16.9787 58.1195 17.8051 59.09 17.9328C59.3058 17.9612 59.4916 18.0938 59.59 18.2866C59.6883 18.4793 59.682 18.7086 59.5751 18.8976C58.9958 19.9277 57.9074 20.5689 56.7357 20.5704C54.9324 20.5728 53.4646 19.1128 53.4623 17.3174L53.4555 12.1056C53.4531 10.3102 54.9171 8.8464 56.7204 8.84405C58.5236 8.84169 59.9914 10.3017 59.9938 12.0971L59.9955 13.4ZM71.7645 13.3847C71.765 13.7443 71.4724 14.0365 71.1115 14.037C70.0301 14.0384 69.1512 14.9164 69.1526 15.9939C69.1538 16.9633 69.8885 17.7897 70.859 17.9174C71.0748 17.9458 71.2619 18.0785 71.359 18.2712C71.456 18.4639 71.451 18.6932 71.3441 18.8823C70.7648 19.9124 69.6764 20.5535 68.5047 20.555C66.7014 20.5574 65.2336 19.0974 65.2313 17.302L65.2245 12.0903C65.2221 10.2948 66.6861 8.83103 68.4894 8.82868C70.2926 8.82633 71.7605 10.2863 71.7628 12.0817L71.7645 13.3847Z" fill="#7CFC67" fill-opacity="0.5"/>
<path d="M14.3843 1.05635C6.45334 1.06671 0.00839486 7.50509 0.018712 15.4074L0.0382745 30.391C0.0396813 31.4686 0.920886 32.3443 2.00233 32.3429L3.30999 32.3412C4.39144 32.3398 5.27035 31.4617 5.26894 30.3842C5.26847 30.0246 5.56232 29.7324 5.92193 29.7319L7.22959 29.7302C7.5892 29.7297 7.88381 30.0212 7.88428 30.3808C7.88568 31.4583 8.76689 32.334 9.84833 32.3326L11.156 32.3309C12.2374 32.3295 13.1164 31.4515 13.1149 30.374C13.1145 30.0144 13.4083 29.7221 13.7679 29.7217L15.0756 29.7199C15.4352 29.7195 15.7298 30.0109 15.7303 30.3706C15.7317 31.4481 16.6129 32.3238 17.6943 32.3224L19.002 32.3207C20.0834 32.3193 20.9624 31.4413 20.961 30.3637C20.9605 30.0041 21.2543 29.7119 21.6139 29.7114L22.9216 29.7097C23.2812 29.7092 23.5758 30.0007 23.5763 30.3603C23.5777 31.4378 24.4589 32.3136 25.5403 32.3121L26.848 32.3104C27.9294 32.309 28.8084 31.431 28.807 30.3535L28.7874 15.3698C28.7771 7.46753 22.3153 1.046 14.3843 1.05635ZM11.7852 13.4376C11.7856 13.7972 11.4931 14.0894 11.1322 14.0899C10.0507 14.0913 9.17183 14.9693 9.17323 16.0469C9.1745 17.0163 9.90918 17.8427 10.8796 17.9704C11.0954 17.9988 11.2813 18.1314 11.3796 18.3241C11.478 18.5168 11.4717 18.7461 11.3647 18.9352C10.7855 19.9653 9.69702 20.6064 8.52535 20.608C6.72208 20.6103 5.25428 19.1504 5.25193 17.3549L5.24513 12.1432C5.24278 10.3478 6.70677 8.88397 8.51004 8.88161C10.3133 8.87926 11.7811 10.3392 11.7835 12.1347L11.7852 13.4376ZM23.5542 13.4222C23.5546 13.7818 23.2621 14.0741 22.9012 14.0746C21.8197 14.076 20.9408 14.954 20.9422 16.0315C20.9435 17.0009 21.6782 17.8273 22.6486 17.955C22.8644 17.9834 23.0516 18.116 23.1486 18.3088C23.2457 18.5015 23.2407 18.7308 23.1337 18.9198C22.5545 19.9499 21.466 20.5911 20.2944 20.5926C18.4911 20.595 17.0233 19.135 17.0209 17.3396L17.0141 12.1278C17.0118 10.3324 18.4758 8.8686 20.279 8.86625C22.0823 8.86389 23.5501 10.3239 23.5525 12.1193L23.5542 13.4222Z" fill="white" fill-opacity="0.5"/>
<path d="M116.265 15.7726L126.528 5.5096C126.773 5.26429 126.773 4.86635 126.528 4.62083C123.55 1.64087 119.59 0 115.378 0C115.377 0 115.377 0 115.376 0C111.163 0.00040921 107.203 1.6421 104.224 4.62247C98.0762 10.7706 98.0762 20.7746 104.224 26.9228C107.203 29.9031 111.163 31.5444 115.376 31.5444C119.589 31.5444 123.55 29.9031 126.529 26.9228C126.774 26.6772 126.774 26.2793 126.528 26.034L116.265 15.7726ZM115.376 30.2874C111.499 30.2874 107.854 28.7768 105.113 26.034C99.4552 20.3758 99.4552 11.1694 105.113 5.51124C107.854 2.7682 111.499 1.25745 115.376 1.25705C115.377 1.25705 115.377 1.25705 115.378 1.25705C119.044 1.25705 122.502 2.608 125.185 5.07442L114.932 15.3282C114.814 15.4461 114.748 15.6059 114.748 15.7726C114.748 15.9394 114.814 16.0991 114.932 16.217L125.186 26.4692C122.502 28.9362 119.043 30.2874 115.376 30.2874Z" fill="white" fill-opacity="0.5"/>
<path d="M120.172 15.7722C120.172 16.9852 121.158 17.972 122.371 17.972C123.585 17.972 124.571 16.9852 124.571 15.7722C124.571 14.5591 123.585 13.5724 122.371 13.5724C121.158 13.5724 120.172 14.5591 120.172 15.7722ZM123.314 15.7722C123.314 16.2921 122.891 16.715 122.371 16.715C121.852 16.715 121.429 16.2921 121.429 15.7722C121.429 15.2523 121.852 14.8294 122.371 14.8294C122.891 14.8294 123.314 15.2523 123.314 15.7722Z" fill="white" fill-opacity="0.5"/>
<path d="M126.99 13.5724C125.777 13.5724 124.791 14.5591 124.791 15.7722C124.791 16.9853 125.777 17.972 126.99 17.972C128.204 17.972 129.19 16.9853 129.19 15.7722C129.19 14.5591 128.204 13.5724 126.99 13.5724ZM126.99 16.715C126.471 16.715 126.048 16.2921 126.048 15.7722C126.048 15.2523 126.471 14.8294 126.99 14.8294C127.51 14.8294 127.933 15.2523 127.933 15.7722C127.933 16.2921 127.51 16.715 126.99 16.715Z" fill="white" fill-opacity="0.5"/>
<path d="M131.61 13.5724C130.397 13.5724 129.41 14.5591 129.41 15.7722C129.41 16.9853 130.397 17.972 131.61 17.972C132.823 17.972 133.81 16.9853 133.81 15.7722C133.81 14.5591 132.823 13.5724 131.61 13.5724ZM131.61 16.715C131.09 16.715 130.667 16.2921 130.667 15.7722C130.667 15.2523 131.09 14.8294 131.61 14.8294C132.13 14.8294 132.552 15.2523 132.552 15.7722C132.552 16.2921 132.13 16.715 131.61 16.715Z" fill="white" fill-opacity="0.5"/>
<path d="M115.946 9.75268C116.941 9.75268 117.748 8.94586 117.748 7.95058C117.748 6.95531 116.941 6.14848 115.946 6.14848C114.951 6.14848 114.144 6.95531 114.144 7.95058C114.144 8.94586 114.951 9.75268 115.946 9.75268Z" fill="white" fill-opacity="0.5"/>
</svg>
