<svg width="31" height="31" viewBox="0 0 31 31" fill="none" xmlns="http://www.w3.org/2000/svg">
<path d="M29.1997 18.7993C28.9364 18.7131 28.657 18.675 28.3775 18.6871C28.098 18.6991 27.8239 18.7612 27.5708 18.8697C27.3177 18.9783 27.0906 19.1311 26.9025 19.3195C26.7143 19.508 26.5689 19.7283 26.4744 19.9679C25.6968 21.9268 24.2717 23.6187 22.3948 24.8114C20.5178 26.0041 18.281 26.639 15.9915 26.6291C13.702 26.6191 11.472 25.9647 9.60767 24.7558C7.74334 23.5469 6.33608 21.8426 5.57908 19.877C4.82209 17.9114 4.75247 15.7809 5.3798 13.7779C6.00713 11.7749 7.30064 9.99758 9.08275 8.69004C10.8649 7.3825 13.0482 6.60881 15.333 6.47518C17.6178 6.34154 19.8921 6.85452 21.8436 7.94369H18.8664C18.3018 7.94369 17.7602 8.14775 17.3609 8.51096C16.9616 8.87418 16.7373 9.36681 16.7373 9.88047C16.7373 10.3941 16.9616 10.8868 17.3609 11.25C17.7602 11.6132 18.3018 11.8173 18.8664 11.8173V11.8173L27.028 11.7979C27.5927 11.7979 28.1342 11.5938 28.5335 11.2306C28.9328 10.8674 29.1571 10.3748 29.1571 9.86111L29.1784 2.43678C29.1784 1.92311 28.9541 1.43049 28.5548 1.06727C28.1555 0.704053 27.614 0.5 27.0493 0.5V0.5C26.4846 0.5 25.9431 0.704053 25.5438 1.06727C25.1445 1.43049 24.9202 1.92311 24.9202 2.43678V5.13213C21.7819 3.07791 17.9068 2.17689 14.0698 2.60921C10.2328 3.04153 6.71653 4.77532 4.22398 7.46397C1.73144 10.1526 0.446291 13.598 0.625474 17.1113C0.804657 20.6246 2.43497 23.947 5.19046 26.4141C7.01892 28.0757 9.27886 29.2905 11.7609 29.9461C14.2429 30.6016 16.8666 30.6766 19.3889 30.1641C21.9113 29.6517 24.2506 28.5683 26.1902 27.0145C28.1297 25.4606 29.6067 23.4866 30.4843 21.2752C30.6746 20.7919 30.6462 20.2597 30.4053 19.7954C30.1644 19.3312 29.7308 18.9729 29.1997 18.7993V18.7993Z" fill="#6441A5"/>
</svg>
